<?xml version="1.0" encoding="UTF-8"?>
<svg id="Layer_2" data-name="Layer 2" xmlns="http://www.w3.org/2000/svg" viewBox="0 0 31.41 26.23">
  <defs>
    <style>
      .cls-1 {
        fill: none;
      }

      .cls-2 {
        fill: #22231f;
      }

      .cls-3 {
        fill: #a2ad8b;
      }

      .cls-4 {
        fill: #c4d1a7;
      }

      .cls-5 {
        fill: #e0e1db;
      }
    </style>
  </defs>
  <g id="Layer_1-2" data-name="Layer 1">
    <g>
      <path class="cls-3" d="M25.69,9.14c.24,0,3.97-.45,5.4-1.01.49-.19.41-.83-.11-.93-1.5-.28-2.84-.94-3.91-1.87,0,.52.11,2.05-1.38,3.81Z"/>
      <path class="cls-4" d="M27.17,13.35c-.37-.65-1.02-1.64-3-3.03,1.72-.93,2.99-2.87,2.89-4.84C27.06,2.46,24.61,0,21.57,0c-2.92,0-5.27,2.12-5.41,5.12-.1,2.18,1.12,4.5,2.77,5.78l-14.33.02v5.19c-.47-.32-1.04-.5-1.65-.5-1.63,0-2.96,1.32-2.96,2.96s1.32,2.96,2.96,2.96c.61,0,1.18-.19,1.65-.5v5.22h6.19c-.38-.5-.6-1.12-.6-1.79,0-1.63,1.32-2.96,2.96-2.96s2.96,1.32,2.96,2.96c0,.67-.23,1.29-.6,1.79h5.32c4.7,0,7.52-3.81,7.52-8.5,0-1.53-.4-3.05-1.17-4.38Z"/>
      <g>
        <ellipse class="cls-2" cx="23.73" cy="4.8" rx=".98" ry="1.01"/>
        <circle class="cls-5" cx="23.32" cy="4.62" r=".23"/>
      </g>
      <path class="cls-1" d="M21.17,19c1-1.16,1.67-2.61,1.58-4.12-.08-1.31-1.41-2.11-2.32-2.82-.49-.39-1.09-.82-1.66-1.31"/>
    </g>
  </g>
</svg>