<?xml version="1.0" encoding="UTF-8"?>
<svg id="Layer_1" data-name="Layer 1" xmlns="http://www.w3.org/2000/svg" viewBox="0 0 40 40">
  <defs>
    <style>
      .cls-1 {
        fill: #231f20;
      }
    </style>
  </defs>
  <path class="cls-1" d="M17.44,13.07v1.45h-6.3v4.36h5.1v1.39h-5.1v4.48h6.3v1.45h-8.08v-13.12h8.08Z"/>
  <path class="cls-1" d="M21.26,13.13c.08.04.16.12.26.24l7.6,9.89c-.02-.16-.03-.31-.04-.46,0-.15,0-.29,0-.44v-9.29h1.56v13.12h-.9c-.14,0-.26-.02-.35-.07-.09-.05-.19-.13-.28-.25l-7.59-9.88c.01.15.02.3.03.45s0,.28,0,.4v9.35h-1.56v-13.12h.92c.16,0,.28.02.35.06Z"/>
</svg>