<?xml version="1.0" encoding="UTF-8"?>
<svg id="Layer_2" data-name="Layer 2" xmlns="http://www.w3.org/2000/svg" viewBox="0 0 381.01 228.56">
  <defs>
    <style>
      .btnMenu1 {
        fill: #fff;
      }

      .btnMenu1, .btnMenu2, .btnMenu3 {
        stroke-miterlimit: 10;
      }

      .btnMenu1, .btnMenu3 {
        stroke: #000;
        stroke-width: .1px;
      }

      .btnMenu2 {
        fill: #fff;
        stroke: #22231f;
        stroke-width: .05px;
      }

      .btnMenu3 {
        fill: #fcca38;
      }
      .btnMenu1 {
                  fill: #88a953;
                }

                .btnMenu1,
                .btnMenu2,
                .btnMenu3 {
                  stroke: #22231f;
                  stroke-miterlimit: 10;
                  stroke-width: 0.05px;
                }

                .btnMenu2 {
                  fill: #fff;
                }

                .btnMenu3 {
                  fill: #fcca38;
                }

                #buttons_lilly_pads:hover .btnMenu1 {
                  fill: #769249;
                }

                #buttons_lilly_pads:hover .btnMenu2 {
                  fill: #f4e1f0;
                  outline-color: red;
                }

                #buttons_lilly_pads:hover .btnMenu3 {
                  fill: #dfadc9;
                  stroke: #dfadc9;
                }
    </style>
  </defs>
  <g id="buttons_lilly_pads" data-name="buttons: lilly pads">
    <g>
      <g>
        <path class="btnMenu2" d="M212.08,227.68c-57.32,4.4-143.7-7.55-189.23-49.94C-14.13,143.31-2.65,109.81,32.07,79.62c72.75-63.26,247.67-67.63,321.19-3.29,33.03,28.91,39.49,69.61,3.18,96.36-18.48,13.61-29.46,10.15-48.99,2.84-12.57-4.71-24.64-11.38-37.31-15.84,8.34,8.73,38.72,25.94,30.91,41.7-7.05,14.22-73.69,25.11-88.97,26.28Z"/>
        <path class="btnMenu2" d="M208.11,223.99c-54.15,3.65-128.82-7.42-174.46-42.19-58.18-44.32-20.81-90.58,26.76-115.35,75.27-39.18,195.04-42.02,270.09.32,29.57,16.68,64.3,51.33,36.96,89.69-30.32,42.54-62.5,9.74-96.93-1.11-2.23-.7-11.29-4.2-10.92.54.23,2.97,37.95,26.86,39.33,38.51.21,1.82-.44,3.98-1.32,5.44-7.65,12.63-74.57,23.13-89.51,24.13Z"/>
      </g>
      <g>
        <path class="btnMenu1" d="M306.75,111.25c-30.94-17.5-58.08,10.4-58.08,10.4-12.68,9.64-21.04,9.55,9.64,20.29,0,0,45.91-1.78,48.44-30.69Z"/>
        <path class="btnMenu1" d="M247.51,40.28c9.82-3.36,25.19-6.58,29.19-5.42,4.07,1.17-2.07,21.18-8.78,29.96-6.72,8.78-10.33,17.05-32.03,15.5-21.7-1.55,1.81-36.68,11.62-40.04Z"/>
        <path class="btnMenu1" d="M241.36,11.04c-32.74,6.35-60.5,32.19-41.61,56.2,25.1,19.06,20.96,20.9,29.06,17.59,7.13-1.97,25.34-52.25,12.55-73.79Z"/>
        <path class="btnMenu1" d="M166.69,29.43c.92-8.26,21.28-30.09,24.59-29.36,2.79.62,16.83,15.89,20.69,25.38.71,1.75,1.34,14.18,1.23,15.4-.73,7.89-23.98,25.16-23.98,25.16,0,0-23.44-28.33-22.52-36.58Z"/>
        <path class="btnMenu1" d="M141.9,29.2c-1.15-1.32,2.55-18.41,5.57-22.38.45-.6,1.3-.74,1.95-.36,20.17,11.74,19.99,23.14,19.99,23.14,0,0-4.57,41.63-27.51-.39Z"/>
        <path class="btnMenu1" d="M197.79,136.97c-4.37,5.07.08,11.49,8.38,17.41,18.31,13.08,55.31,23.74,57.35,12.13,4.2-29.81-22.9-35.49-22.9-35.49,0,0-8.92,10.31-42.83,5.94Z"/>
        <path class="btnMenu1" d="M179.43,188.45c21.85-7.52,26.73-34.07,26.73-34.07,0,0,8.58-26.42-24.13-15.16-6.45,1.33-15.35,4.8-15.89,22.66.7,15.03,7.52,26.4,13.29,26.57Z"/>
        <path class="btnMenu1" d="M124.19,138.81c22.2-8.39,45.45-.7,46.85,4.89,1.4,5.59-6.29,42.48-62.58,28.49-3.85-20.45,8.74-31.29,15.73-33.39Z"/>
        <path class="btnMenu1" d="M72.19,112.75c10.62,31.35,54.51,28.43,51.62,25.85,2.18.21-8.22-2.14-3.13-18.91-.45-.02-4.26-1.01-13.6-11.33-12.07-5.39-20.98-7.13-34.9,4.4Z"/>
        <path class="btnMenu1" d="M75.45,68.46c7.92,27.15,17.76,34.51,19.18,35.99,0,0,12.04,4.55,10.33,3.2-1.27-1.01,11.63-14.27,6.18-22.12-.48-5.41-21.08-20.56-35.69-17.07Z"/>
        <path class="btnMenu1" d="M289.68,76.97c3.52,2.01-13.68,46.23-48.78,55.49-7.76-1.39-23.61-13.25-9.7-27.5,9.67-15.74,54.96-30,58.48-27.99Z"/>
        <path class="btnMenu1" d="M276.53,62.67c-27.76,5.04-37.01,12.23-45.74,15.32-30.35,18.24,6.49,34.71,22.92,23.67,12.84-12.16,21.68-27.62,22.82-38.98Z"/>
        <path class="btnMenu1" d="M83.57,42.54c9.89-3.19,24.42-.48,30,1.6,6.6,7.47,21,39.85,14.78,41.8-22.17,12.97-45.59-16.53-44.78-43.4Z"/>
        <path class="btnMenu1" d="M98.2,75.95c-3.74,31.59,18.65,44.11,20.47,44.12-.23-9.49,20.57-3.19,23.65-2.93-10.65-10.9-13.75-30.55-13.75-30.55,0,0-30.92-14.24-30.37-10.64Z"/>
        <path class="btnMenu1" d="M114.47,22.91c-.4-.04-.8.1-1.07.4-2.7,2.93-1.22,9.22.17,21.88,2.27,16.15,25.08,69.43,44.2,27.49.11-.23.28-.42.5-.55,8.32-5.26,21.68-42.13-43.8-49.21Z"/>
        <path class="btnMenu1" d="M154.32,92.64l5.88-21.97s-8.04-18.25-28.78-18.88c-3.5.46-10.77,20.95-1.86,32.8,8.91,11.86,24.76,8.05,24.76,8.05Z"/>
        <path class="btnMenu1" d="M152.92,68.43c-4.47-20.27,10.73-44.04,10.73-44.04,0,0,27.83,15.47,28.8,39.91-1.11,4.98-35.06,24.4-39.53,4.13Z"/>
        <path class="btnMenu1" d="M197.79,138.01c12.04,5.76,43.55,1.62,51.52-16.55,8.67-23.38.89-20.32-9.38-20.32s-23.2,13.85-23.2,13.85c0,0,2.67,11.87-18.93,23.02Z"/>
        <path class="btnMenu1" d="M188.92,66.6c2.71-12.97,33.66-34.08,37.51-31.85,5.09,2.95,17.5,31.92-5.22,56.56-2.76,1.4-33.16-20.55-32.29-24.71Z"/>
        <ellipse class="btnMenu3" cx="181.01" cy="91.78" rx="31.81" ry="25.73"/>
        <path class="btnMenu1" d="M168.16,106.68s-11.92-9.96-14.41-12.15c-2.48-2.2-23.11-18.36-23.11-18.36-7.89,5.72-5.45,25.07,5.33,36.78,10.96,11.89,30.32,16.09,28.98,15.34-2.67-1.48,3.2-21.6,3.2-21.6Z"/>
        <path class="btnMenu1" d="M201.21,102.23c1.81-12.9,30.1-27.74,33.72-29.04,3.89-1.4,16.16,25.44-2.37,30.19-5.79,1.48-15.12,11.48-15.92,11.66s-3.8-6.36-15.43-12.81Z"/>
        <path class="btnMenu1" d="M187.39,140.67c13.14,0,24.39-12.62,24.39-12.62,0,0,5.63-6.82,5.12-12.97-.48-5.78-23.95-25.49-51.18-7.16-7.92,6.59-1.88,21.32-1.88,21.32,0,0,10.41,11.43,23.54,11.43Z"/>
        <path class="btnMenu1" d="M182.04,139.13c-5.68,9.72-47.02,14.49-60.65-.63-4.05-4.49-5.65-10.73-3.16-19.11.28-2.42,1.99-4.46,4.35-5.06,13.08-3.27,42.44,13.74,42.44,13.74,0,0,18.95,9.01,17.02,11.06Z"/>
      </g>
    </g>
  </g>
</svg>