<?xml version="1.0" encoding="UTF-8"?>
          <svg
            id="Layer_2"
            data-name="Layer 2"
            xmlns="http://www.w3.org/2000/svg"
            viewBox="0 0 405.38 218.59"
          >
            <defs>
              <style>
                .btnMenu1 {
                  fill: #6f8f3f;
                }

                .btnMenu1:hover {
                  fill: red;
                }

                .btnMenu1,
                .btnMenu2,
                .btnMenu3 {
                  stroke: #22231f;
                  stroke-miterlimit: 10;
                  stroke-width: 0.05px;
                }

                .btnMenu2 {
                  fill: #fff;
                }

                .btnMenu3 {
                  fill: #fcca38;
                }
              </style>
            </defs>
            <g id="buttons:_lilly_pads" data-name="buttons: lilly pads">
              <g>
                <g>
                  <path
                    class="btnMenu1"
                    d="M220.3,31.8c-60.31-2.81-150.71,10.48-197.42,51.52-37.94,33.34-25.01,64.65,12.23,92.31,78.05,57.95,261.86,57.97,337.4-4.43,33.94-28.03,46.42-54.59,13.95-79.45-18.53-14.19-78.75,5.26-108.11,5.67-.39,0-.64-.33-.35-.59,10.44-9.02,44.67-28.3,36.42-42.34-7.78-13.25-78.04-21.95-94.12-22.7Z"
                  />
                  <path
                    class="btnMenu1"
                    d="M215.87,34.78c-56.96-2.18-135.1,10.02-182.12,43.87-59.94,43.16-19.49,85.91,31.12,108.15,80.07,35.19,205.92,35.05,283.63-6.63,30.62-16.43,74.12-58.45,36.47-85.45-27.64-19.82-113.09,18.54-113.25,3.06-.04-3.81,39.16-26.22,40.3-37.24.18-1.72-.56-3.74-1.53-5.1-8.36-11.73-78.92-20.06-94.63-20.66Z"
                  />
                </g>
                <g>
                  <path
                    class="btnMenu2"
                    d="M324.12,111.22c-30.94-17.5-58.08,10.4-58.08,10.4-12.68,9.64-21.04,9.55,9.64,20.29,0,0,45.91-1.78,48.44-30.69Z"
                  />
                  <path
                    class="btnMenu2"
                    d="M264.88,40.26c9.82-3.36,25.19-6.58,29.19-5.42,4.07,1.17-2.07,21.18-8.78,29.96-6.72,8.78-10.33,17.05-32.03,15.5-21.7-1.55,1.81-36.68,11.62-40.04Z"
                  />
                  <path
                    class="btnMenu2"
                    d="M258.73,11.02c-32.74,6.35-60.5,32.19-41.61,56.2,25.1,19.06,20.96,20.9,29.06,17.59,7.13-1.97,25.34-52.25,12.55-73.79Z"
                  />
                  <path
                    class="btnMenu2"
                    d="M184.06,29.4c.92-8.26,21.28-30.09,24.59-29.36,2.79.62,16.83,15.89,20.69,25.38.71,1.75,1.34,9.36,1.23,10.58-.73,7.89-23.98,29.98-23.98,29.98,0,0-23.44-28.33-22.52-36.58Z"
                  />
                  <path
                    class="btnMenu2"
                    d="M159.27,29.17c-1.15-1.32,2.55-18.41,5.57-22.38.45-.6,1.3-.74,1.95-.36,20.17,11.74,19.99,23.14,19.99,23.14,0,0-4.57,41.63-27.51-.39Z"
                  />
                  <path
                    class="btnMenu2"
                    d="M215.16,136.95c-4.37,5.07.08,11.49,8.38,17.41,18.31,13.08,55.31,23.74,57.35,12.13,4.2-29.81-22.9-35.49-22.9-35.49,0,0-8.92,10.31-42.83,5.94Z"
                  />
                  <path
                    class="btnMenu2"
                    d="M196.8,188.43c21.85-7.52,26.73-34.07,26.73-34.07,0,0,8.58-26.42-24.13-15.16-6.45,1.33-15.35,4.8-15.89,22.66.7,15.03,7.52,26.4,13.29,26.57Z"
                  />
                  <path
                    class="btnMenu2"
                    d="M141.56,138.78c22.2-8.39,45.45-.7,46.85,4.89,1.4,5.59-6.29,42.48-62.58,28.49-3.85-20.45,8.74-31.29,15.73-33.39Z"
                  />
                  <path
                    class="btnMenu2"
                    d="M199.41,139.11c-5.68,9.72-47.02,14.49-60.65-.63-4.05-4.49-5.65-10.73-3.16-19.11.28-2.42,1.99-4.46,4.35-5.06,13.08-3.27,42.44,13.74,42.44,13.74,0,0,18.95,9.01,17.02,11.06Z"
                  />
                  <path
                    class="btnMenu2"
                    d="M87.76,112.73c10.62,31.35,54.51,28.43,51.62,25.85,2.18.21-8.22-2.14-3.13-18.91-.45-.02-4.26-1.01-13.6-11.33-12.07-5.39-20.98-7.13-34.9,4.4Z"
                  />
                  <path
                    class="btnMenu2"
                    d="M92.82,68.43c7.92,27.15,17.76,34.51,19.18,35.99,0,0,12.04,4.55,10.33,3.2-1.27-1.01,11.63-14.27,6.18-22.12-.48-5.41-21.08-20.56-35.69-17.07Z"
                  />
                  <path
                    class="btnMenu2"
                    d="M307.06,76.94c3.52,2.01-13.68,46.23-48.78,55.49-7.76-1.39-23.61-13.25-9.7-27.5,9.67-15.74,54.96-30,58.48-27.99Z"
                  />
                  <path
                    class="btnMenu2"
                    d="M293.9,62.64c-27.76,5.04-37.01,12.23-45.74,15.32-30.35,18.24,6.49,34.71,22.92,23.67,12.84-12.16,21.68-27.62,22.82-38.98Z"
                  />
                  <path
                    class="btnMenu2"
                    d="M100.95,42.51c9.89-3.19,24.42-.48,30,1.6,6.6,7.47,21,39.85,14.78,41.8-22.17,12.97-45.59-16.53-44.78-43.4Z"
                  />
                  <path
                    class="btnMenu2"
                    d="M115.58,75.93c-3.74,31.59,18.65,44.11,20.47,44.12-.23-9.49,20.57-3.19,23.65-2.93-10.65-10.9-13.75-30.55-13.75-30.55,0,0-30.92-14.24-30.37-10.64Z"
                  />
                  <path
                    class="btnMenu2"
                    d="M131.85,22.89c-.4-.04-.8.1-1.07.4-2.7,2.93-1.22,9.22.17,21.88,2.27,16.15,25.08,69.43,44.2,27.49.11-.23.28-.42.5-.55,8.32-5.26,21.68-42.13-43.8-49.21Z"
                  />
                  <path
                    class="btnMenu2"
                    d="M171.69,92.62l5.88-21.97s-8.04-18.25-28.78-18.88c-3.5.46-10.77,20.95-1.86,32.8,8.91,11.86,24.76,8.05,24.76,8.05Z"
                  />
                  <path
                    class="btnMenu2"
                    d="M170.29,68.41c-4.47-20.27,10.73-44.04,10.73-44.04,0,0,27.83,15.47,28.8,39.91-1.11,4.98-35.06,24.4-39.53,4.13Z"
                  />
                  <path
                    class="btnMenu2"
                    d="M215.16,137.99c12.04,5.76,43.55,1.62,51.52-16.55,8.67-23.38.89-20.32-9.38-20.32s-23.2,13.85-23.2,13.85c0,0,2.67,11.87-18.93,23.02Z"
                  />
                  <path
                    class="btnMenu2"
                    d="M206.59,65.98c2.71-12.97,33.66-34.08,37.51-31.85,5.09,2.95,17.5,31.92-5.22,56.56-2.76,1.4-33.16-20.55-32.29-24.71Z"
                  />
                  <ellipse
                    class="btnMenu3"
                    cx="198.38"
                    cy="91.76"
                    rx="31.81"
                    ry="25.73"
                  />
                  <path
                    class="btnMenu2"
                    d="M185.53,106.65s-11.92-9.96-14.41-12.15c-2.48-2.2-23.11-18.36-23.11-18.36-7.89,5.72-5.45,25.07,5.33,36.78,10.96,11.89,30.32,16.09,28.98,15.34-2.67-1.48,3.2-21.6,3.2-21.6Z"
                  />
                  <path
                    class="btnMenu2"
                    d="M218.58,102.2c1.81-12.9,30.1-27.74,33.72-29.04,3.89-1.4,16.16,25.44-2.37,30.19-5.79,1.48-15.12,11.48-15.92,11.66s-3.8-6.36-15.43-12.81Z"
                  />
                  <path
                    class="btnMenu2"
                    d="M206.18,140.65c13.14,0,24.39-12.62,24.39-12.62,0,0,5.63-6.82,5.12-12.97-.48-5.78-23.95-25.49-51.18-7.16-7.92,6.59-1.88,21.32-1.88,21.32,0,0,10.41,11.43,23.54,11.43Z"
                  />
                </g>
              </g>
            </g>
          </svg>