<?xml version="1.0" encoding="UTF-8"?>
<svg id="Layer_1" data-name="Layer 1" xmlns="http://www.w3.org/2000/svg" viewBox="0 0 40 40">
  <defs>
    <style>
      .cls-1 {
        fill: #231f20;
      }
    </style>
  </defs>
  <path class="cls-1" d="M11.64,21.65v4.89h-1.8v-13.07h3.94c.85,0,1.58.1,2.21.29s1.14.46,1.55.82c.41.35.72.78.92,1.28.2.5.3,1.06.3,1.67s-.11,1.17-.33,1.67c-.22.5-.54.94-.96,1.3-.42.37-.94.65-1.56.85-.62.2-1.33.31-2.14.31h-2.15ZM11.64,20.24h2.15c.52,0,.97-.07,1.37-.2s.73-.32.99-.56c.27-.24.47-.53.61-.86.14-.33.21-.7.21-1.1,0-.83-.26-1.48-.79-1.95-.53-.47-1.32-.7-2.38-.7h-2.15v5.38Z"/>
  <path class="cls-1" d="M30.16,13.46v1.49h-4.32v11.59h-1.81v-11.59h-4.34v-1.49h10.46Z"/>
</svg>