<?xml version="1.0" encoding="UTF-8"?>
<svg id="Layer_1" data-name="Layer 1" xmlns="http://www.w3.org/2000/svg" viewBox="0 0 45 45">
  <defs>
    <style>
      .cls-1 {
        fill: #231f20;
      }

      .cls-2 {
        fill: none;
        stroke: #231f20;
        stroke-miterlimit: 10;
        stroke-width: 2px;
      }
    </style>
  </defs>
  <circle class="cls-2" cx="22.74" cy="22.51" r="7.72"/>
  <rect class="cls-1" x="2.59" y="21.29" width="7.92" height="2.16" rx="1.08" ry="1.08"/>
  <rect class="cls-1" x="34.49" y="21.29" width="7.92" height="2.16" rx="1.08" ry="1.08"/>
  <rect class="cls-1" x="7.31" y="10.17" width="7.92" height="2.16" rx="1.08" ry="1.08" transform="translate(11.26 -4.68) rotate(45)"/>
  <rect class="cls-1" x="29.73" y="32.79" width="7.92" height="2.16" rx="1.08" ry="1.08" transform="translate(33.81 -13.9) rotate(45)"/>
  <rect class="cls-1" x="19.24" y="5.52" width="7.92" height="2.16" rx="1.08" ry="1.08" transform="translate(29.8 -16.6) rotate(90)"/>
  <rect class="cls-1" x="19.18" y="37.32" width="7.92" height="2.16" rx="1.08" ry="1.08" transform="translate(61.55 15.26) rotate(90)"/>
  <rect class="cls-1" x="29.78" y="10.09" width="7.92" height="2.16" rx="1.08" ry="1.08" transform="translate(65.49 -4.79) rotate(135)"/>
  <rect class="cls-1" x="7.33" y="32.74" width="7.92" height="2.16" rx="1.08" ry="1.08" transform="translate(43.2 49.75) rotate(135)"/>
</svg>